KRSPY-parametric-WideBlackMaxGrade-minXOPQ.ufo
<glyph name="one" format="2">
  <advance width="3515.621621621621"/>
  <unicode hex="0031"/>
  <outline>
    <contour>
      <point x="80.73573573573573" y="0.0" type="line"/>
      <point x="3438.7897897897897" y="0.0" type="line" identifier="CURJAw79Zl"/>
      <point x="3438.7897897897897" y="591.3411609808006" type="line" identifier="0DUCJo8xIi"/>
      <point x="1760.7627627627626" y="591.3411609808006" type="line" identifier="5nmxQXofSG"/>
      <point x="1760.7627627627626" y="1600.0" type="line" identifier="4rjIeWbSbx"/>
      <point x="77.73573573573573" y="1600.0" type="line"/>
      <point x="77.73573573573573" y="1008.6588390191993" type="line"/>
      <point x="1758.7627627627626" y="1008.6588390191993" type="line"/>
      <point x="1758.7627627627626" y="591.3411609808006" type="line"/>
      <point x="80.73573573573573" y="591.3411609808006" type="line"/>
    </contour>
  </outline>
</glyph>
<glyph name="two" format="2">
  <advance width="3505.0240240240237"/>
  <unicode hex="0032"/>
  <outline>
    <contour>
      <point x="77.98498498498498" y="0.0" type="line"/>
      <point x="3427.135135135135" y="0.0" type="line" identifier="pzdvPTirLJ"/>
      <point x="3427.135135135135" y="558.0303727150574" type="line" identifier="91SxUS0iwG"/>
      <point x="3425.135135135135" y="558.0303727150574" type="line" identifier="fP7EN0pUcl"/>
      <point x="3425.135135135135" y="556.9222375528682" type="line" identifier="eb458Bdvng"/>
      <point x="79.12451189928666" y="556.9222375528682" type="line"/>
      <point x="79.12451189928666" y="583.5216838460082" type="line" identifier="9fjc25rkUx"/>
      <point x="3423.0436562688815" y="689.5023131239348" type="line" identifier="yyb1NCCI5w"/>
      <point x="3423.0436562688815" y="1600.0" type="line" identifier="5FogYRSgkk"/>
      <point x="80.98498498498498" y="1600.0" type="line" identifier="svlFvrau4c"/>
      <point x="80.98498498498498" y="958.524407290173" type="line" identifier="LQ9fBsTy9K"/>
      <point x="82.98498498498498" y="958.524407290173" type="line" identifier="jS6EyIAKtm"/>
      <point x="82.98498498498498" y="1044.7987086185283" type="line"/>
      <point x="3421.0436562688815" y="1044.7987086185283" type="line" identifier="N6CMAjhNlU"/>
      <point x="3421.0436562688815" y="965.0366582799015" type="line" identifier="yK1d5IcluK"/>
      <point x="77.98498498498498" y="860.8730712694677" type="line" identifier="teVKnpBcVb"/>
    </contour>
  </outline>
</glyph>
<glyph name="three" format="2">
  <advance width="3505.8888888888887"/>
  <unicode hex="0033"/>
  <outline>
    <contour>
      <point x="78.46546546546546" y="0.0" type="line" identifier="O9abUc1nmN"/>
      <point x="3427.5195195195192" y="0.0" type="line" identifier="kMJYMTfXCq"/>
      <point x="3427.5195195195192" y="895.5220716211708" type="line" identifier="su2XmdS8e8"/>
      <point x="2216.072063054045" y="895.5220716211708" type="line" identifier="JQaOzDQqlF"/>
      <point x="2216.072063054045" y="785.4387991595198" type="line"/>
      <point x="3419.5195195195192" y="1076.085572058545" type="line" identifier="S91TzLL02W"/>
      <point x="3419.5195195195192" y="1600.0" type="line" identifier="xg8x2Ki40p"/>
      <point x="80.46546546546546" y="1600.0" type="line" identifier="pE1XSRiy68"/>
      <point x="80.46546546546546" y="1026.1149257365473" type="line" identifier="5lNstGRcSF"/>
      <point x="82.46546546546546" y="1026.1149257365473" type="line" identifier="AcE5xKDZfE"/>
      <point x="82.46546546546546" y="1042.1629737845954" type="line" identifier="7ogBYufWpl"/>
      <point x="3417.5195195195192" y="1042.1629737845954" type="line" identifier="RHLvSX2Jv6"/>
      <point x="3417.5195195195192" y="1224.9908467025584" type="line" identifier="YUjTrmoWd9"/>
      <point x="2351.7477567657747" y="961.0187394601809" type="line"/>
      <point x="2351.7477567657747" y="960.9180261342424" type="line" identifier="iic1IBkDqp"/>
      <point x="946.7898168438708" y="960.9180261342424" type="line" identifier="lRLJEhXMlO"/>
      <point x="946.7898168438708" y="632.9988366745124" type="line" identifier="8aKgEELrVU"/>
      <point x="3425.5195195195192" y="632.9988366745124" type="line" identifier="Dm8zjmbhNr"/>
      <point x="3425.5195195195192" y="556.9222375528682" type="line" identifier="xv9CFHiFgB"/>
      <point x="79.56156156156156" y="556.9222375528682" type="line" identifier="YajKQV3MHP"/>
      <point x="79.56156156156156" y="568.5997889781675" type="line" identifier="36SchVkwze"/>
      <point x="78.46546546546546" y="568.5997889781675" type="line" identifier="tVui9PiOjA"/>
    </contour>
  </outline>
</glyph>
<glyph name="four" format="2">
  <advance width="3518.198198198198"/>
  <unicode hex="0034"/>
  <outline>
    <contour>
      <point x="3048.6126126126123" y="0.0" type="line"/>
      <point x="3050.6126126126123" y="0.0" type="line"/>
      <point x="3050.6126126126123" y="463.25254082911744" type="line"/>
      <point x="3440.27027027027" y="463.25254082911744" type="line"/>
      <point x="3440.27027027027" y="1013.2909936963991" type="line"/>
      <point x="3050.6126126126123" y="1013.2909936963991" type="line"/>
      <point x="3050.6126126126123" y="1600.0" type="line"/>
      <point x="3048.6126126126123" y="1600.0" type="line"/>
      <point x="3048.6126126126123" y="1013.2909936963991" type="line"/>
      <point x="79.2596470344218" y="1013.2909936963991" type="line"/>
      <point x="79.2596470344218" y="1073.5200966732498" type="line"/>
      <point x="538.3502240979718" y="1680.0" type="line"/>
      <point x="535.5424162901639" y="1680.0" type="line"/>
      <point x="78.12012012012012" y="1073.4240005771537" type="line"/>
      <point x="78.12012012012012" y="463.25254082911744" type="line"/>
      <point x="3048.6126126126123" y="463.25254082911744" type="line"/>
    </contour>
  </outline>
</glyph>
<glyph name="five" format="2">
  <advance width="3500.6576576576576"/>
  <unicode hex="0035"/>
  <outline>
    <contour>
      <point x="79.75837098359621" y="0.0" type="line" identifier="09VlJ0BjUX"/>
      <point x="3421.9039039039035" y="0.0" type="line" identifier="EagWihqFM8"/>
      <point x="3421.9039039039035" y="966.9909188467747" type="line" identifier="KfNuQA7eZe"/>
      <point x="79.84984984984985" y="980.0328616905193" type="line" identifier="At364YZFEy"/>
      <point x="79.84984984984985" y="1043.0777624471316" type="line" identifier="BcuLfvaQKC"/>
      <point x="3421.9039039039035" y="1043.0777624471316" type="line" identifier="3ZUkG35meB"/>
      <point x="3421.9039039039035" y="1600.0" type="line" identifier="SaF9ojRFrW"/>
      <point x="78.75375375375376" y="1600.0" type="line" identifier="F4sQEYelA8"/>
      <point x="78.75375375375376" y="638.5547890232575" type="line" identifier="3sQ8t8BZ6b"/>
      <point x="3420.8078078078074" y="625.5128461795128" type="line" identifier="yiV6OCBLHg"/>
      <point x="3420.8078078078074" y="556.9222375528682" type="line" identifier="9kdl9SYsn8"/>
      <point x="81.75837098359621" y="556.9222375528682" type="line" identifier="yZDWuX8LLe"/>
      <point x="81.75837098359621" y="480.3122582041501" type="line" identifier="jYb9001DTm"/>
      <point x="79.75837098359621" y="480.3122582041501" type="line" identifier="ho4DrS0rdW"/>
    </contour>
  </outline>
</glyph>
<glyph name="seven" format="2">
  <advance width="3504.5045045045044"/>
  <unicode hex="0037"/>
  <outline>
    <contour>
      <point x="1476.9705741777814" y="0.0" type="line"/>
      <point x="1479.8310472634796" y="0.0" type="line" identifier="PiPrv7Kcoy"/>
      <point x="3426.135135135135" y="994.5386287188089" type="line" identifier="PkvwNC9Tx1"/>
      <point x="3426.135135135135" y="1600.0" type="line" identifier="tgqM27bPOm"/>
      <point x="77.98498498498498" y="1600.0" type="line" identifier="36ml4xRICt"/>
      <point x="77.98498498498498" y="658.8081955829705" type="line" identifier="aaDZsh5Mah"/>
      <point x="79.08108108108108" y="658.8081955829705" type="line"/>
      <point x="79.08108108108108" y="1008.6588390191993" type="line"/>
      <point x="3424.995608220833" y="1008.6588390191993" type="line"/>
      <point x="3424.995608220833" y="994.330709087466" type="line"/>
    </contour>
  </outline>
</glyph>
<glyph name="eight" format="2">
  <advance width="3521"/>
  <unicode hex="0038"/>
  <outline>
    <contour>
      <point x="3090" y="610" type="line"/>
      <point x="3439" y="446" type="line"/>
      <point x="3439" y="535" type="line"/>
      <point x="81" y="535" type="line"/>
      <point x="81" y="431" type="line"/>
      <point x="432" y="610" type="line"/>
    </contour>
    <contour>
      <point x="3092" y="799" type="line"/>
      <point x="3092" y="801" type="line"/>
      <point x="3438" y="990" type="line"/>
      <point x="3438" y="1600" type="line"/>
      <point x="83" y="1600" type="line"/>
      <point x="83" y="990" type="line"/>
      <point x="429" y="801" type="line"/>
      <point x="429" y="799" type="line"/>
      <point x="80" y="609" type="line"/>
      <point x="80" y="0" type="line"/>
      <point x="3441" y="0" type="line"/>
      <point x="3441" y="609" type="line"/>
    </contour>
    <contour>
      <point x="432" y="1007" type="line"/>
      <point x="85" y="1179" type="line"/>
      <point x="84" y="1083" type="line"/>
      <point x="3436" y="1083" type="line"/>
      <point x="3435" y="1179" type="line"/>
      <point x="3089" y="1008" type="line"/>
    </contour>
  </outline>
</glyph>
<glyph name="nine" format="2">
  <advance width="3505.3123123123123"/>
  <unicode hex="0039"/>
  <outline>
    <contour>
      <point x="3427.231231231231" y="1600.0" type="line" identifier="uiw6aBUf4P"/>
      <point x="78.04226749271794" y="1600.0" type="line" identifier="jtYkxiUX6G"/>
      <point x="78.04226749271794" y="620.0673376078781" type="line" identifier="2G5L37c87I"/>
      <point x="3425.231231231231" y="620.0673376078781" type="line"/>
      <point x="3425.231231231231" y="548.3175066958851" type="line"/>
      <point x="80.17717717717717" y="548.3175066958851" type="line"/>
      <point x="80.17717717717717" y="483.6831245660075" type="line"/>
      <point x="79.08108108108108" y="483.6831245660075" type="line" identifier="Wuidbv6mUe"/>
      <point x="79.08108108108108" y="0.0" type="line" identifier="oGvEEuxnYv"/>
      <point x="3427.231231231231" y="0.0" type="line" identifier="xR3pEHbMJx"/>
    </contour>
    <contour>
      <point x="79.18179440701964" y="972.5686136587037" type="line"/>
      <point x="79.18179440701964" y="1034.4730315901486" type="line"/>
      <point x="3425.231231231231" y="1034.4730315901486" type="line"/>
      <point x="3425.231231231231" y="972.5686136587037" type="line"/>
    </contour>
  </outline>
</glyph>
<glyph name="B" format="2">
  <advance width="3506"/>
  <unicode hex="0042"/>
  <outline>
    <contour>
      <point x="78" y="0" type="line" identifier="hvY9r8RmLr"/>
      <point x="3428" y="0" type="line" identifier="9QFpw7nfq7"/>
      <point x="3428" y="586" type="line" identifier="543PerILpr"/>
      <point x="3090" y="799" type="line" identifier="zhomauHW30"/>
      <point x="3090" y="801" type="line" identifier="870ZhtaozS"/>
      <point x="3352" y="1008" type="line" identifier="eGKH52Jgnk"/>
      <point x="3352" y="1600" type="line" identifier="FaP204GrdB"/>
      <point x="78" y="1600" type="line" identifier="JEev70GAj6"/>
    </contour>
    <contour>
      <point x="79" y="1022" type="line" identifier="By7dfMihfe"/>
      <point x="79" y="1103" type="line" identifier="1p5hKrurVy"/>
      <point x="3350" y="1103" type="line" identifier="Qby8aMtF2X"/>
      <point x="3350" y="1168" type="line" identifier="9lW01gQyU2"/>
      <point x="3226" y="1022" type="line" identifier="xpxyvIzPoc"/>
    </contour>
    <contour>
      <point x="79" y="497" type="line" identifier="jaMSiLrCua"/>
      <point x="79" y="578" type="line" identifier="XSrxNd2axx"/>
      <point x="3088" y="578" type="line" identifier="VyYlzRh5nq"/>
      <point x="3426" y="374" type="line" identifier="lsRGatjQja"/>
      <point x="3426" y="497" type="line" identifier="xhlDJ3CjD5"/>
    </contour>
  </outline>
</glyph>
<glyph name="C" format="2">
  <advance width="3497.810756702648"/>
  <unicode hex="0043"/>
  <outline>
    <contour>
      <point x="77.95353010668325" y="0.0" type="line" identifier="7lPhzTnk2Z"/>
      <point x="3351.3169024880735" y="0.0" type="line" identifier="qJVLZGnkwh"/>
      <point x="3351.3169024880735" y="615.6167699230762" type="line" identifier="nDnDHzAMXL"/>
      <point x="3349.3169024880735" y="615.6167699230762" type="line" identifier="QX1V08aTu0"/>
      <point x="3349.3169024880735" y="599.9458918377837" type="line" identifier="Y750RHTvDj"/>
      <point x="79.04962620277935" y="599.9458918377837" type="line" identifier="L2LsGnXiZ2"/>
      <point x="79.91009928847767" y="770.5369694018344" type="line" identifier="sUWsr03vF4"/>
      <point x="304.53308263218173" y="1000.0541081622162" type="line" identifier="dbOUe6OhxL"/>
      <point x="3350.081279477676" y="1000.0541081622162" type="line" identifier="5BjRbcud80"/>
      <point x="3349.2208063919775" y="853.2044206368531" type="line" identifier="fNVDqwQo2o"/>
      <point x="3350.3169024880735" y="853.2044206368531" type="line" identifier="wLqQQx7QVN"/>
      <point x="3350.3169024880735" y="1600.0" type="line" identifier="9eJelv8BOw"/>
      <point x="541.3649415180947" y="1600.0" type="line" identifier="lfZev3ICaC"/>
      <point x="77.95353010668325" y="1093.262424586749" type="line" identifier="V1EWIdPahq"/>
    </contour>
  </outline>
</glyph>
<glyph name="M" format="2">
  <advance width="3577.501952402853"/>
  <unicode hex="004D"/>
  <outline>
    <contour>
      <point x="1777.7895643391137" y="80.0" type="line" identifier="0Dn4Xpf57M"/>
      <point x="110.04534263993722" y="888.1926070214358" type="line"/>
      <point x="82.72394917439962" y="888.1926070214358" type="line"/>
      <point x="82.72394917439962" y="0.0" type="line"/>
      <point x="80.72394917439962" y="0.0" type="line"/>
      <point x="80.72394917439962" y="1600.0" type="line"/>
      <point x="108.72582492402312" y="1600.0" type="line"/>
      <point x="1777.6964351739127" y="788.1482383284185" type="line"/>
      <point x="1799.8055172289405" y="788.1482383284185" type="line" identifier="9aKZPM0HPh"/>
      <point x="3468.8195582970357" y="1600.0" type="line"/>
      <point x="3496.778003228453" y="1600.0" type="line"/>
      <point x="3496.778003228453" y="0.0" type="line"/>
      <point x="3494.778003228453" y="0.0" type="line"/>
      <point x="3494.778003228453" y="888.1926070214358" type="line"/>
      <point x="3468.3605136668198" y="888.1926070214358" type="line"/>
      <point x="1799.7123880637391" y="80.0" type="line" identifier="spdoeeCFft"/>
    </contour>
  </outline>
</glyph>
<glyph name="N" format="2">
  <advance width="3063.088602115629"/>
  <unicode hex="004E"/>
  <outline>
    <contour>
      <point x="80.35803370938507" y="0.0" type="line" identifier="CkwYPPvJLv"/>
      <point x="81.49756062368675" y="0.0" type="line" identifier="oHTJsN7drZ"/>
      <point x="81.49756062368675" y="959.7748198649099" type="line" identifier="wfBbYd10Pm"/>
      <point x="98.18299380461542" y="959.7748198649099" type="line" identifier="MEnBDHq6zU"/>
      <point x="2962.730568406244" y="0.0" type="line" identifier="3Nbopwznvn"/>
      <point x="2982.730568406244" y="0.0" type="line" identifier="uKfuudIUvA"/>
      <point x="2982.730568406244" y="1600.0" type="line" identifier="XRdLFXiM4t"/>
      <point x="2981.591041491942" y="1600.0" type="line" identifier="MUSJPjCIXg"/>
      <point x="2981.591041491942" y="640.22518013509" type="line" identifier="VILP20cFmq"/>
      <point x="2961.9056083110136" y="640.22518013509" type="line" identifier="z5b04GDwRN"/>
      <point x="96.45412980548116" y="1600.0" type="line" identifier="LL64NQ6WBE"/>
      <point x="80.35803370938507" y="1600.0" type="line" identifier="dzUaaP1sjt"/>
    </contour>
  </outline>
</glyph>
<glyph name="O" format="2">
  <advance width="3509.8200452704955"/>
  <unicode hex="004F"/>
  <outline>
    <contour>
      <point x="3434.8037496956417" y="488.78032987942896" type="line" identifier="ob8US3C311"/>
      <point x="3434.8037496956417" y="1600.0" type="line" identifier="c9brEFyXXA"/>
      <point x="530.1052223394565" y="1600.0" type="line" identifier="a4Ql951bxG"/>
      <point x="77.59771483194906" y="1105.8057066075085" type="line" identifier="kbL68Qh2zr"/>
      <point x="77.59771483194906" y="0.0" type="line" identifier="U6WibAQAUl"/>
      <point x="2982.435769102436" y="0.0" type="line" identifier="dfgNHTgBfR"/>
    </contour>
    <contour>
      <point x="3432.8037496956417" y="950.2202923644364" type="line" identifier="SnrsQD5TLy"/>
      <point x="3142.594044494945" y="642.9695461226993" type="line" identifier="jjd5iRDXWT"/>
      <point x="78.73724174625076" y="642.9695461226993" type="line" identifier="YbQKHpAtYn"/>
      <point x="78.73724174625076" y="642.0541442343243" type="line" identifier="vdfGLkskOQ"/>
      <point x="396.62161260359454" y="957.0304538773006" type="line" identifier="qXlVxK5ShE"/>
      <point x="3432.8037496956417" y="957.0304538773006" type="line" identifier="g70r2r6DwY"/>
    </contour>
  </outline>
</glyph>
<glyph name="Q" format="2">
  <advance width="3509.84774864955"/>
  <unicode hex="0051"/>
  <outline>
    <contour>
      <point x="3432.2223304385466" y="1601.7209461713967" type="line" identifier="c9brEFyXXA"/>
      <point x="530.1052223394565" y="1601.7209461713967" type="line" identifier="a4Ql951bxG"/>
      <point x="77.59771483194906" y="1104.6376286196105" type="line" identifier="kbL68Qh2zr"/>
      <point x="77.59771483194906" y="1.7209461713966216" type="line" identifier="U6WibAQAUl"/>
      <point x="3432.2223304385466" y="1.7209461713966216" type="line" identifier="dfgNHTgBfR"/>
    </contour>
    <contour>
      <point x="3431.082803524245" y="593.0621071521972" type="line" identifier="jjd5iRDXWT"/>
      <point x="78.73724174625076" y="593.0621071521972" type="line" identifier="YbQKHpAtYn"/>
      <point x="78.73724174625076" y="722.6836746656567" type="line" identifier="vdfGLkskOQ"/>
      <point x="315.3774946117289" y="1010.3797851905958" type="line" identifier="qXlVxK5ShE"/>
      <point x="3431.082803524245" y="1010.3797851905958" type="line" identifier="g70r2r6DwY"/>
    </contour>
    <contour>
      <point x="1759.7512016521023" y="-434.7768128488849" type="line"/>
      <point x="1761.7512016521023" y="-434.7768128488849" type="line"/>
      <point x="1761.7512016521023" y="2.0" type="line"/>
      <point x="1759.7512016521023" y="2.0" type="line"/>
    </contour>
  </outline>
</glyph>
<glyph name="R" format="2">
  <advance width="3509"/>
  <unicode hex="0052"/>
  <outline>
    <contour>
      <point x="81" y="894" type="line"/>
      <point x="79" y="1009" type="line"/>
      <point x="3427" y="1009" type="line"/>
      <point x="3427" y="1102" type="line"/>
      <point x="3093" y="894" type="line"/>
    </contour>
    <contour>
      <point x="3432" y="0" type="line"/>
      <point x="3433" y="445" type="line"/>
      <point x="3096" y="658" type="line"/>
      <point x="3096" y="660" type="line"/>
      <point x="3429" y="867" type="line"/>
      <point x="3429" y="1600" type="line"/>
      <point x="78" y="1600" type="line"/>
      <point x="78" y="0" type="line"/>
      <point x="80" y="0" type="line"/>
      <point x="80" y="392" type="line"/>
      <point x="3094" y="392" type="line"/>
      <point x="3430" y="171" type="line"/>
      <point x="3430" y="0" type="line"/>
    </contour>
  </outline>
</glyph>
<glyph name="S" format="2">
  <advance width="3500"/>
  <unicode hex="0053"/>
  <outline>
    <contour>
      <point x="77" y="0" type="line" identifier="09VlJ0BjUX"/>
      <point x="3423" y="0" type="line" identifier="EagWihqFM8"/>
      <point x="3423" y="981" type="line" identifier="KfNuQA7eZe"/>
      <point x="87" y="981" type="line" identifier="At364YZFEy"/>
      <point x="87" y="1046" type="line" identifier="BcuLfvaQKC"/>
      <point x="3422" y="1046" type="line" identifier="3ZUkG35meB"/>
      <point x="3422" y="1121" type="line" identifier="DTOJhFIl15"/>
      <point x="3423" y="1121" type="line" identifier="9KDcrfQ5Ui"/>
      <point x="3423" y="1600" type="line" identifier="SaF9ojRFrW"/>
      <point x="85" y="1600" type="line" identifier="F4sQEYelA8"/>
      <point x="85" y="625" type="line" identifier="3sQ8t8BZ6b"/>
      <point x="3422" y="625" type="line" identifier="yiV6OCBLHg"/>
      <point x="3422" y="557" type="line" identifier="9kdl9SYsn8"/>
      <point x="79" y="557" type="line" identifier="yZDWuX8LLe"/>
      <point x="79" y="481" type="line" identifier="jYb9001DTm"/>
      <point x="77" y="481" type="line" identifier="ho4DrS0rdW"/>
    </contour>
  </outline>
</glyph>
<glyph name="U" format="2">
  <advance width="3508.305142980819"/>
  <unicode hex="0055"/>
  <outline>
    <contour>
      <point x="3426.5765765765764" y="1600.0" type="line" smooth="yes"/>
      <point x="3426.5765765765764" y="591.3411609808006" type="line"/>
      <point x="347.57223890557225" y="591.3411609808006" type="line" smooth="yes"/>
      <point x="80.5659533407281" y="838.6360955550144" type="line" smooth="yes"/>
      <point x="80.5659533407281" y="1600.0" type="line"/>
      <point x="79.42642642642642" y="1600.0" type="line" smooth="yes"/>
      <point x="79.42642642642642" y="497.8453228002777" type="line" smooth="yes"/>
      <point x="542.8378378378378" y="0.0" type="line" smooth="yes"/>
      <point x="3428.5765765765764" y="0.0" type="line" smooth="yes"/>
      <point x="3428.5765765765764" y="1600.0" type="line" smooth="yes"/>
    </contour>
  </outline>
</glyph>
<glyph name="V" format="2">
  <advance width="3508.305142980819"/>
  <unicode hex="0056"/>
  <outline>
    <contour>
      <point x="80.59365671978284" y="1600.0" type="line" smooth="yes"/>
      <point x="80.59365671978284" y="591.3411609808006" type="line"/>
      <point x="3105.4270035801565" y="591.3411609808006" type="line" smooth="yes"/>
      <point x="3426.604279955631" y="908.3344154965777" type="line" smooth="yes"/>
      <point x="3426.604279955631" y="1600.0" type="line"/>
      <point x="3428.604279955631" y="1600.0" type="line" smooth="yes"/>
      <point x="3428.604279955631" y="497.8453228002777" type="line" smooth="yes"/>
      <point x="2965.0967724481234" y="0.0" type="line" smooth="yes"/>
      <point x="79.45412980548116" y="0.0" type="line" smooth="yes"/>
      <point x="79.45412980548116" y="1600.0" type="line" smooth="yes"/>
    </contour>
  </outline>
</glyph>
<glyph name="W" format="2">
  <advance width="4967.09009009009"/>
  <unicode hex="0057"/>
  <outline>
    <contour>
      <point x="384.4264264264264" y="1600.0" type="line" smooth="yes" identifier="12Pyby1xY2"/>
      <point x="382.4264264264264" y="1600.0" type="line" smooth="yes" identifier="5LJg4ajoG6"/>
      <point x="382.4264264264264" y="0.0" type="line" smooth="yes" identifier="ZqTZqAY3uY"/>
      <point x="2288.333333333333" y="0.0" type="line" smooth="yes" identifier="rCeQLyjlsN"/>
      <point x="2482.189189189189" y="311.66094021949874" type="line"/>
      <point x="2483.093093093093" y="311.66094021949874" type="line"/>
      <point x="2634.948948948949" y="0.0" type="line" smooth="yes" identifier="Pkl7cZ37MU"/>
      <point x="4121.48787526265" y="0.0" type="line" smooth="yes" identifier="R4lklfJsHA"/>
      <point x="4584.899286674061" y="497.8453228002777" type="line" smooth="yes" identifier="7g7f8Wu7K4"/>
      <point x="4584.899286674061" y="1600.0" type="line" smooth="yes" identifier="RTOJW56qXy"/>
      <point x="4582.899286674061" y="1600.0" type="line" identifier="JfSFAkWGZC"/>
      <point x="4582.899286674061" y="828.1801260720179" type="line" smooth="yes" identifier="WWvGwSpq0g"/>
      <point x="4329.752049346644" y="591.3411609808006" type="line" smooth="yes" identifier="oee4nqI8Wl"/>
      <point x="2636.0884758632506" y="591.3411609808006" type="line" identifier="Ljn2lpvpG8"/>
      <point x="2484.232620007395" y="861.3002732462191" type="line"/>
      <point x="2484.3240988736484" y="1301.3851689527364" type="line" smooth="yes"/>
      <point x="2484.045045045045" y="1301.3851689527364" type="line"/>
      <point x="2482.232620007395" y="1176.6954341729115" type="line"/>
      <point x="2482.136523911299" y="861.7622848073298" type="line"/>
      <point x="2290.9878707536363" y="591.3411609808006" type="line" identifier="GlWB6PG54Z"/>
      <point x="384.4264264264264" y="591.3411609808006" type="line" identifier="iqeTRv7HXg"/>
    </contour>
  </outline>
</glyph>
<glyph name="X" format="2">
  <advance width="3520"/>
  <unicode hex="0058"/>
  <outline>
    <contour>
      <point x="3086" y="499" type="line"/>
      <point x="3436" y="278" type="line"/>
      <point x="3436" y="0" type="line"/>
      <point x="3438" y="0" type="line"/>
      <point x="3438" y="578" type="line"/>
      <point x="3089" y="799" type="line"/>
      <point x="3089" y="801" type="line"/>
      <point x="3435" y="1008" type="line"/>
      <point x="3435" y="1600" type="line"/>
      <point x="3433" y="1600" type="line"/>
      <point x="3433" y="1309" type="line"/>
      <point x="3086" y="1101" type="line"/>
      <point x="429" y="1101" type="line"/>
      <point x="82" y="1309" type="line"/>
      <point x="82" y="1600" type="line"/>
      <point x="80" y="1600" type="line"/>
      <point x="80" y="1008" type="line"/>
      <point x="427" y="801" type="line"/>
      <point x="427" y="799" type="line"/>
      <point x="77" y="578" type="line"/>
      <point x="77" y="0" type="line"/>
      <point x="79" y="0" type="line"/>
      <point x="79" y="278" type="line"/>
      <point x="429" y="499" type="line"/>
    </contour>
  </outline>
</glyph>
<glyph name="Z" format="2">
  <advance width="3505.9279279279276"/>
  <unicode hex="005A"/>
  <outline>
    <contour>
      <point x="77.98498498498498" y="0.0" type="line"/>
      <point x="3428.942942942943" y="0.0" type="line" identifier="pzdvPTirLJ"/>
      <point x="3428.942942942943" y="758.0411222032844" type="line" identifier="91SxUS0iwG"/>
      <point x="3426.942942942943" y="758.0411222032844" type="line"/>
      <point x="3426.942942942943" y="591.3411609808006" type="line"/>
      <point x="79.12451189928666" y="591.3411609808006" type="line"/>
      <point x="79.12451189928666" y="622.5705164624084" type="line"/>
      <point x="3424.690275861447" y="999.4552570588606" type="line" identifier="yyb1NCCI5w"/>
      <point x="3424.690275861447" y="1600.0" type="line" identifier="5FogYRSgkk"/>
      <point x="80.98498498498498" y="1600.0" type="line" identifier="svlFvrau4c"/>
      <point x="80.98498498498498" y="858.9671292914535" type="line" identifier="LQ9fBsTy9K"/>
      <point x="82.98498498498498" y="858.9671292914535" type="line"/>
      <point x="82.98498498498498" y="1008.6588390191993" type="line"/>
      <point x="3422.3243603964324" y="1008.6588390191993" type="line"/>
      <point x="3422.3243603964324" y="997.8520682845007" type="line"/>
      <point x="77.98498498498498" y="622.9022355689023" type="line" identifier="teVKnpBcVb"/>
    </contour>
  </outline>
</glyph>
<glyph name="C.wide" format="2">
  <advance width="3497.810756702648"/>
  <outline>
    <contour>
      <point x="77.95353010668325" y="0.0" type="line" identifier="7lPhzTnk2Z"/>
      <point x="3351.3169024880735" y="0.0" type="line" identifier="qJVLZGnkwh"/>
      <point x="3351.3169024880735" y="599.9458918377837" type="line" identifier="Y750RHTvDj"/>
      <point x="79.04962620277935" y="599.9458918377837" type="line" identifier="L2LsGnXiZ2"/>
      <point x="79.91009928847767" y="770.5369694018344" type="line" identifier="sUWsr03vF4"/>
      <point x="304.53308263218173" y="1000.0541081622162" type="line" identifier="dbOUe6OhxL"/>
      <point x="3350.3169024880735" y="1000.0541081622162" type="line" identifier="5BjRbcud80"/>
      <point x="3350.3169024880735" y="1600.0" type="line" identifier="9eJelv8BOw"/>
      <point x="541.3649415180947" y="1600.0" type="line" identifier="lfZev3ICaC"/>
      <point x="77.95353010668325" y="1093.262424586749" type="line" identifier="V1EWIdPahq"/>
    </contour>
  </outline>
</glyph>
<glyph name="E.wide" format="2">
  <advance width="3500.641704767831"/>
  <outline>
    <contour>
      <point x="79.82004527049573" y="0.0" type="line" identifier="fZynkQ4XHB"/>
      <point x="3421.9701954206453" y="0.0" type="line" identifier="FAQNpgUPxV"/>
      <point x="3421.9701954206453" y="537.9746773800828" type="line" identifier="5cgTYOhATF"/>
      <point x="80.95957218479742" y="537.9746773800828" type="line" identifier="bWs42DaCgU"/>
      <point x="80.95957218479742" y="614.5786056326598" type="line" identifier="VtD2aADJmn"/>
      <point x="3332.359909459008" y="614.5786056326598" type="line" identifier="PpbsFdHAnS"/>
      <point x="3332.359909459008" y="985.512873233594" type="line" identifier="8WuC5p8Ax5"/>
      <point x="80.95957218479742" y="985.512873233594" type="line" identifier="m39IWn9ntA"/>
      <point x="80.95957218479742" y="1063.0315901487072" type="line" identifier="gQ21I4SHQg"/>
      <point x="3420.9701954206453" y="1063.0315901487072" type="line" identifier="eqNb2VTwYs"/>
      <point x="3420.9701954206453" y="1600.0" type="line" identifier="qYRmo14Il5"/>
      <point x="79.82004527049573" y="1600.0" type="line" identifier="HmJIcnLWfC"/>
    </contour>
  </outline>
</glyph>
<glyph name="F.wide" format="2">
  <advance width="3498.7100974848718"/>
  <outline>
    <contour>
      <point x="79.77661445229013" y="0.0" type="line" identifier="oAgH2tA6DJ"/>
      <point x="80.91614136659182" y="0.0" type="line" identifier="zCZyMcW5ho"/>
      <point x="80.91614136659182" y="337.7063820577334" type="line" identifier="yHYqkMd7LI"/>
      <point x="3202.033258483709" y="337.7063820577334" type="line" identifier="NmB7yyQuio"/>
      <point x="3202.033258483709" y="849.8840191542894" type="line" identifier="wQk2C8zPHh"/>
      <point x="80.91614136659182" y="849.8840191542894" type="line" identifier="4cFHKQfHDt"/>
      <point x="80.91614136659182" y="1006.9378928478027" type="line" identifier="ZvzwyrcwpS"/>
      <point x="3419.9701954206453" y="1006.9378928478027" type="line" identifier="4E754ovOIe"/>
      <point x="3419.9701954206453" y="1600.0" type="line" identifier="NUrIjqOB7J"/>
      <point x="79.77661445229013" y="1600.0" type="line" identifier="TBAYuCfUFX"/>
    </contour>
  </outline>
</glyph>
<glyph name="G.wide" format="2">
  <advance width="3504.745835926016"/>
  <outline>
    <contour>
      <point x="77.96276456636816" y="0.0" type="line" identifier="7lPhzTnk2Z"/>
      <point x="3427.1129147165184" y="0.0" type="line" identifier="qJVLZGnkwh"/>
      <point x="3427.1129147165184" y="966.1107774441108" type="line" identifier="uek1NNj7De"/>
      <point x="3020.41935629323" y="966.1107774441108" type="line" identifier="qcvimxjndX"/>
      <point x="3020.41935629323" y="614.4699744789834" type="line" identifier="EARaY3Su65"/>
      <point x="3425.1129147165184" y="614.4699744789834" type="line" identifier="4m6dHLVhZq"/>
      <point x="3425.1129147165184" y="548.3175066958851" type="line" identifier="Y750RHTvDj"/>
      <point x="79.10229148066986" y="548.3175066958851" type="line" identifier="L2LsGnXiZ2"/>
      <point x="79.10229148066986" y="858.6482698915132" type="line" identifier="sUWsr03vF4"/>
      <point x="270.66138210282355" y="1043.0777624471316" type="line" identifier="dbOUe6OhxL"/>
      <point x="3426.1129147165184" y="1043.0777624471316" type="line" identifier="5BjRbcud80"/>
      <point x="3426.1129147165184" y="1600.0" type="line" identifier="9eJelv8BOw"/>
      <point x="541.3741759777795" y="1600.0" type="line" identifier="lfZev3ICaC"/>
      <point x="77.96276456636816" y="1100.5807338870402" type="line" identifier="V1EWIdPahq"/>
    </contour>
  </outline>
</glyph>
<glyph name="K.alt" format="2">
  <advance width="3506.866668470272"/>
  <outline>
    <contour>
      <point x="80.4044314584855" y="0.0" type="line" identifier="wmNm7XZsaF"/>
      <point x="80.4044314584855" y="464.74765756747735" type="line" identifier="O22liaP9Qk"/>
      <point x="3077.6968500031558" y="464.74765756747735" type="line" identifier="ELFBWIb1vd"/>
      <point x="3426.5019163307447" y="256.9733427120815" type="line" identifier="DzXo67YEfw"/>
      <point x="3426.5019163307447" y="0.0" type="line" identifier="aKpYWD78l2"/>
      <point x="3428.5019163307447" y="0.0" type="line" identifier="ChS7KlqGi6"/>
      <point x="3428.5019163307447" y="578.458115773431" type="line" identifier="sWLgkU8Vey"/>
      <point x="3078.884424965506" y="799.0" type="line" identifier="Of0iQc0wBG"/>
      <point x="3078.884424965506" y="801.0" type="line" identifier="j4jnmtDJYB"/>
      <point x="3425.067608148689" y="1600.0" type="line" identifier="dMJ1ywOKQQ"/>
      <point x="3423.067608148689" y="1600.0" type="line" identifier="08OWjR2YBJ"/>
      <point x="3212.215972729486" y="1107.7172036901768" type="line" identifier="g4YLdZEoM3"/>
      <point x="80.4044314584855" y="1107.7172036901768" type="line" identifier="uZuki3Isec"/>
      <point x="80.4044314584855" y="1600.0" type="line" identifier="nRfcNgqJ4H"/>
      <point x="78.4044314584855" y="1600.0" type="line" identifier="3XJlWt89ad"/>
      <point x="78.4044314584855" y="0.0" type="line" identifier="wdbO8kCovY"/>
    </contour>
  </outline>
</glyph>
<glyph name="R.alt" format="2">
  <advance width="3509"/>
  <outline>
    <contour>
      <point x="81" y="894" type="line"/>
      <point x="79" y="1009" type="line"/>
      <point x="3427" y="1009" type="line"/>
      <point x="3427" y="894" type="line"/>
    </contour>
    <contour>
      <point x="3433" y="0" type="line"/>
      <point x="3143" y="564" type="line"/>
      <point x="3478" y="569" type="line"/>
      <point x="3429" y="1600" type="line"/>
      <point x="78" y="1600" type="line"/>
      <point x="78" y="0" type="line"/>
      <point x="80" y="0" type="line"/>
      <point x="80" y="392" type="line"/>
      <point x="3233" y="392" type="line"/>
      <point x="3431" y="0" type="line"/>
    </contour>
  </outline>
</glyph>
<glyph name="S.alt" format="2">
  <advance width="3293.6636636636636"/>
  <outline>
    <contour>
      <point x="17.0" y="0.0" type="line" identifier="09VlJ0BjUX"/>
      <point x="3268.6636636636636" y="0.0" type="line" identifier="EagWihqFM8"/>
      <point x="3268.6636636636636" y="991.3903903903904" type="line" identifier="KfNuQA7eZe"/>
      <point x="17.0" y="991.3903903903904" type="line" identifier="At364YZFEy"/>
      <point x="17.0" y="1015.7229030832634" type="line"/>
      <point x="51.38973207441677" y="1074.0547935322709" type="line"/>
      <point x="3266.6636636636636" y="1074.0547935322709" type="line" identifier="3ZUkG35meB"/>
      <point x="3266.6636636636636" y="1054.1074948822697" type="line" identifier="DTOJhFIl15"/>
      <point x="3268.6636636636636" y="1054.1074948822697" type="line" identifier="9KDcrfQ5Ui"/>
      <point x="3268.6636636636636" y="1600.0" type="line" identifier="SaF9ojRFrW"/>
      <point x="407.87539792044294" y="1600.0" type="line"/>
      <point x="15.0" y="1015.7229030832634" type="line"/>
      <point x="15.0" y="608.6096096096096" type="line" identifier="3sQ8t8BZ6b"/>
      <point x="3266.6636636636636" y="608.6096096096096" type="line" identifier="yiV6OCBLHg"/>
      <point x="3266.6636636636636" y="525.945206467729" type="line" identifier="9kdl9SYsn8"/>
      <point x="18.956569181794407" y="525.945206467729" type="line" identifier="yZDWuX8LLe"/>
      <point x="18.956569181794407" y="502.73422972522076" type="line" identifier="jYb9001DTm"/>
      <point x="17.0" y="502.73422972522076" type="line" identifier="ho4DrS0rdW"/>
    </contour>
  </outline>
</glyph>
<glyph name="S.wide" format="2">
  <advance width="3293.6636636636636"/>
  <outline>
    <contour>
      <point x="17.0" y="0.0" type="line" identifier="09VlJ0BjUX"/>
      <point x="3268.6636636636636" y="0.0" type="line" identifier="EagWihqFM8"/>
      <point x="3268.6636636636636" y="991.3903903903904" type="line" identifier="KfNuQA7eZe"/>
      <point x="17.0" y="991.3903903903904" type="line" identifier="At364YZFEy"/>
      <point x="17.0" y="1015.7229030832634" type="line"/>
      <point x="55.68938307677047" y="1074.0547935322709" type="line"/>
      <point x="3268.6636636636636" y="1074.0547935322709" type="line" identifier="3ZUkG35meB"/>
      <point x="3268.6636636636636" y="1600.0" type="line" identifier="SaF9ojRFrW"/>
      <point x="412.2184797410023" y="1600.0" type="line"/>
      <point x="15.0" y="1015.7229030832634" type="line"/>
      <point x="15.0" y="608.6096096096096" type="line" identifier="3sQ8t8BZ6b"/>
      <point x="3266.6636636636636" y="608.6096096096096" type="line" identifier="yiV6OCBLHg"/>
      <point x="3266.6636636636636" y="525.945206467729" type="line" identifier="9kdl9SYsn8"/>
      <point x="17.0" y="525.945206467729" type="line" identifier="yZDWuX8LLe"/>
    </contour>
  </outline>
</glyph>
<glyph name="Z.wide" format="2">
  <advance width="3505"/>
  <outline>
    <contour>
      <point x="77" y="0" type="line"/>
      <point x="3428" y="0" type="line" identifier="pzdvPTirLJ"/>
      <point x="3428" y="590" type="line"/>
      <point x="79" y="590" type="line"/>
      <point x="79" y="749" type="line"/>
      <point x="3419" y="903" type="line" identifier="yyb1NCCI5w"/>
      <point x="3419" y="1600" type="line" identifier="5FogYRSgkk"/>
      <point x="79" y="1600" type="line" identifier="svlFvrau4c"/>
      <point x="79" y="1010" type="line"/>
      <point x="3416" y="1010" type="line"/>
      <point x="3416" y="903" type="line"/>
      <point x="77" y="751" type="line" identifier="teVKnpBcVb"/>
    </contour>
  </outline>
</glyph>
